<?xml version="1.0" encoding="utf-8"?>
<!-- Generator: Adobe Illustrator 16.0.0, SVG Export Plug-In . SVG Version: 6.00 Build 0)  -->
<!DOCTYPE svg PUBLIC "-//W3C//DTD SVG 1.1//EN" "http://www.w3.org/Graphics/SVG/1.1/DTD/svg11.dtd">
<svg version="1.1" id="Layer_1" xmlns="http://www.w3.org/2000/svg" xmlns:xlink="http://www.w3.org/1999/xlink" x="0px" y="0px"
	 width="128px" height="128px" viewBox="0 0 128 128" enable-background="new 0 0 128 128" xml:space="preserve">
<g>
	<g>
		<g>
			<path fill="#282D33" d="M63.047,128c-33.095,0-60.02-26.592-60.02-59.277c0-32.682,26.925-59.271,60.02-59.271v4
				c-30.89,0-56.02,24.794-56.02,55.271c0,30.48,25.13,55.277,56.02,55.277c30.886,0,56.014-24.797,56.014-55.277h4
				C123.061,101.408,96.139,128,63.047,128z"/>
		</g>
		<g>
			<path fill="#282D33" d="M63.047,128c-19.61,0-35.565-26.592-35.565-59.277c0-32.682,15.955-59.271,35.565-59.271v4
				c-17.405,0-31.565,24.794-31.565,55.271c0,30.48,14.16,55.277,31.565,55.277c13.056,0,24.931-14.463,29.55-35.988l3.91,0.84
				C91.482,112.268,78.036,128,63.047,128z"/>
		</g>
		<g>
			<path fill="#282D33" d="M63.047,128h-2V58.292h4v65.673c29.964-1.042,54.014-25.423,54.014-55.242
				c0-3.042-0.251-6.083-0.747-9.041l3.945-0.661c0.532,3.175,0.802,6.439,0.802,9.702C123.061,101.408,96.139,128,63.047,128z"/>
		</g>
		<g>
			<path fill="#282D33" d="M118.661,90.912H7.42l-0.49-1.288c-2.589-6.799-3.902-13.831-3.902-20.901
				c0-7.077,1.316-14.112,3.911-20.907l0.491-1.287h58.092v4h-55.32C8.095,56.466,7.027,62.58,7.027,68.723
				c0,6.138,1.065,12.25,3.167,18.189H115.89c2.104-5.931,3.171-12.043,3.171-18.189h4c0,7.082-1.314,14.115-3.908,20.903
				L118.661,90.912z"/>
		</g>
	</g>
	<g>
		<g>
			<path fill="#282D33" d="M94.588,72.019L93.3,70.935c-1.188-1-29.103-24.683-29.103-40.914C64.197,13.467,77.83,0,94.588,0
				c16.754,0,30.385,13.467,30.385,30.021c0,16.231-27.908,39.913-29.097,40.914L94.588,72.019z M94.588,4
				C80.036,4,68.197,15.673,68.197,30.021c0,12.576,20.93,31.905,26.391,36.733c5.459-4.83,26.385-24.166,26.385-36.733
				C120.973,15.673,109.137,4,94.588,4z M94.588,45.935c-8.879,0-16.102-7.14-16.102-15.915c0-8.769,7.223-15.902,16.102-15.902
				c8.865,0,16.078,7.133,16.078,15.902C110.666,38.795,103.453,45.935,94.588,45.935z M94.588,18.118
				c-6.673,0-12.102,5.339-12.102,11.902c0,6.57,5.429,11.915,12.102,11.915c6.66,0,12.078-5.345,12.078-11.915
				C106.666,23.458,101.248,18.118,94.588,18.118z"/>
		</g>
		<g>
			<path fill="#282D33" d="M94.588,45.935c-8.879,0-16.102-7.14-16.102-15.915c0-8.769,7.223-15.902,16.102-15.902
				c8.865,0,16.078,7.133,16.078,15.902C110.666,38.795,103.453,45.935,94.588,45.935z M94.588,18.118
				c-6.673,0-12.102,5.339-12.102,11.902c0,6.57,5.429,11.915,12.102,11.915c6.66,0,12.078-5.345,12.078-11.915
				C106.666,23.458,101.248,18.118,94.588,18.118z"/>
		</g>
	</g>
</g>
</svg>
