<?xml version="1.0" encoding="utf-8"?>
<!-- Generator: Adobe Illustrator 23.0.3, SVG Export Plug-In . SVG Version: 6.00 Build 0)  -->
<svg version="1.1" id="Layer_1" xmlns="http://www.w3.org/2000/svg" xmlns:xlink="http://www.w3.org/1999/xlink" x="0px" y="0px"
	 viewBox="0 0 32 32" style="enable-background:new 0 0 32 32;" xml:space="preserve">
<g>
	<g>
		<path d="M12,14c-3.859375,0-7-3.140625-7-7s3.140625-7,7-7s7,3.140625,7,7S15.859375,14,12,14z M12,2C9.2431641,2,7,4.2431641,7,7
			s2.2431641,5,5,5s5-2.2431641,5-5S14.7568359,2,12,2z"/>
	</g>
	<g>
		<path d="M23,32c-0.5527344,0-1-0.4472656-1-1v-6.1152344c0-3.828125-3.1142578-6.9423828-6.9423828-6.9423828H8.9423828
			C5.1142578,17.9423828,2,21.0566406,2,24.8847656V31c0,0.5527344-0.4472656,1-1,1s-1-0.4472656-1-1v-6.1152344
			c0-4.9306641,4.0117188-8.9423828,8.9423828-8.9423828h6.1152344C19.9882813,15.9423828,24,19.9541016,24,24.8847656V31
			C24,31.5527344,23.5527344,32,23,32z"/>
	</g>
	<g>
		<path d="M31,32c-0.5527344,0-1-0.4472656-1-1v-6.1152344c0-3.828125-3.1142578-6.9423828-6.9423828-6.9423828
			c-0.5527344,0-1-0.4472656-1-1s0.4472656-1,1-1C27.9882813,15.9423828,32,19.9541016,32,24.8847656V31
			C32,31.5527344,31.5527344,32,31,32z"/>
	</g>
	<g>
		<path d="M20,14c-0.5527344,0-1-0.4472656-1-1s0.4472656-1,1-1c2.7568359,0,5-2.2431641,5-5s-2.2431641-5-5-5
			c-0.5527344,0-1-0.4472656-1-1s0.4472656-1,1-1c3.859375,0,7,3.140625,7,7S23.859375,14,20,14z"/>
	</g>
</g>
</svg>
