<?xml version="1.0" encoding="UTF-8"?>
<svg id="Layer_1" xmlns="http://www.w3.org/2000/svg" version="1.1" viewBox="0 0 300 111.86">
  <!-- Generator: Adobe Illustrator 30.1.0, SVG Export Plug-In . SVG Version: 2.1.1 Build 136)  -->
  <path d="M19.49,103.07c-5.47,0-9.91-4.43-9.91-9.91v-12.88h27.98v-9.09H9.8v-11.83H0v35.78c0,4.62,1.87,8.79,4.89,11.82,3.03,3.02,7.2,4.89,11.82,4.89h29.93v-8.78h-27.15ZM118.37,59.37c-3.3,0-6.3,1.44-8.45,3.77-2.16,2.34-3.5,5.56-3.5,9.12v39.6h9.14v-39.15c0-2.22,1.8-4.02,4.02-4.02h21.42c1.43,0,2.58,1.15,2.58,2.58v9.42c0,1.43-1.15,2.58-2.58,2.58h-17.86v9.83h20.11v18.76h9.01v-52.49s-33.89,0-33.89,0ZM193.48,59.37v34.9c0,4.7-3.81,8.51-8.51,8.51h-14.77v-43.41h-8.94v52.49h24.74c4.62,0,8.79-1.87,11.82-4.89,3.02-3.03,4.89-7.2,4.89-11.82v-35.78h-9.23ZM280.22,102.77c-3.93,0-7.12-3.19-7.12-7.13v-36.28h-9.9v35.78c0,4.62,1.87,8.79,4.89,11.82,3.03,3.02,7.2,4.89,11.82,4.89h20.09v-9.08h-19.78ZM244.3,80.36h-17.87v9h29.33v-29.99h-33.92c-3.31,0-6.3,1.44-8.46,3.77-2.15,2.34-3.5,5.56-3.5,9.12v22.89c0,4.62,1.87,8.79,4.89,11.82,3.03,3.02,7.2,4.89,11.82,4.89h29.17v-9.83h-28.95c-4.3,0-7.78-3.48-7.78-7.78v-22.05c0-2.22,1.8-4.02,4.02-4.02h21.25c1.42,0,2.58,1.15,2.58,2.58v7.02c0,1.43-1.16,2.58-2.58,2.58ZM99.11,82.55v-23.18h-34.67c-3.3,0-6.29,1.44-8.45,3.77-2.03,2.19-3.33,5.16-3.48,8.46v40.26h9.74v-39.15c0-2.22,1.8-4.02,4.02-4.02h21.42c1.42,0,2.58,1.15,2.58,2.58v9.42c0,1.43-1.16,2.58-2.58,2.58h-17.87v9.83h11.84l7.75,18.76h9.7l-.78-1.55-8.92-18.06c5.36,0,9.7-4.34,9.7-9.7h0Z"/>
  <path d="M179.98.84v21.13c0,3.3-1.45,6.29-3.8,8.46-2.36,2.17-5.59,3.51-9.18,3.51h-16.3v-8.3h16c2.31,0,4.18-1.87,4.18-4.18v-11.57h-22.72c-2.71,0-4.91,2.2-4.91,4.92v37.75h-9.15V12.81c0-3.31,1.45-6.29,3.81-8.46,2.35-2.17,5.59-3.51,9.17-3.51h32.9Z"/>
  <path d="M14.21,10.64h33.09V.84H13.23c-3.65,0-6.96,1.33-9.36,3.48C1.48,6.47,0,9.45,0,12.74v39.83h9.73v-17.99h27.77v-10.45H9.73v-9.01c0-2.47,2.01-4.47,4.48-4.47h0ZM52.49.84v51.72h10.52V.84h-10.52ZM86.45,42.84c-2.59,0-4.7-2.11-4.7-4.7V.84h-9.8v38.8c0,3.56,1.48,6.79,3.87,9.14,2.38,2.33,5.69,3.78,9.33,3.78h24.35v-9.72s-23.05,0-23.05,0ZM115.34.84v51.72h9.15V.84h-9.15Z"/>
  <path d="M252.53,0c5.42.58,10.04,5.36,11.16,9.75,4.84-2.2,11.66.63,12.38,4.57-2.27-.62-8.35-1.05-10.57,2.11-.23,2.23-.24,5.04,4.72,12.64-5.99-1.4-10.63-5.86-11.45-10.02-1.12.95-12.15.46-13.1-3.64,4.48.08,10-1.82,11.01-3.55.46-3.65-1.15-8.17-4.15-11.86Z"/>
  <path d="M183.95,32.51c5.24-1.52,11.33,1.14,14.03,4.78,3.65-3.87,11.02-3.85,13.19-.47-2.33.29-8.13,2.2-8.98,5.97.63,2.15,1.69,4.76,9.17,9.89-6.07.98-12.06-1.38-14.4-4.92-.67,1.3-11.06,5.05-13.5,1.61,4.17-1.63,8.56-5.48,8.83-7.47-.96-3.55-4.17-7.12-8.34-9.39h0Z"/>
  <path d="M215.23,13.52c5.4-.73,11.03,2.82,13.16,6.82,4.18-3.29,11.47-2.16,13.11,1.5-2.35-.07-8.36.96-9.77,4.57.3,2.22.96,4.96,7.59,11.15-6.15.07-11.72-3.16-13.5-7.02-.86,1.19-11.69,3.34-13.59-.42,4.37-.99,9.29-4.14,9.85-6.07-.42-3.65-3.06-7.66-6.85-10.53Z"/>
</svg>