<svg xmlns="http://www.w3.org/2000/svg" width="264" height="76" viewBox="0 0 264 76" version="1.1">
	<path d="M 176.400 2.408 C 164.670 5.256, 150.676 12.513, 147.464 17.415 C 145.357 20.630, 144.387 27.503, 145.908 28.443 C 146.551 28.841, 149.242 27.169, 152.107 24.593 C 162.849 14.936, 177.140 8.138, 188.509 7.278 C 196.118 6.702, 202 8.554, 202 11.526 C 202 13.714, 203.767 13.311, 204.516 10.951 C 205.413 8.124, 202.585 4.142, 198.454 2.416 C 194.362 0.706, 183.427 0.702, 176.400 2.408 M 18.430 6.250 C 6.862 14.089, -2.840 37.864, 0.902 49.204 C 3.842 58.112, 14.020 60.520, 21.036 53.967 C 22.666 52.444, 24 51.516, 24 51.905 C 24 54.672, 19.396 65.278, 16.857 68.357 C 14.305 71.454, 13.217 72.056, 10.632 71.805 C 8.106 71.559, 7.300 70.881, 6.465 68.298 C 5.138 64.193, 4.207 63.296, 3.416 65.359 C 1.477 70.412, 6.327 76, 12.654 76 C 20.801 76, 26.980 67.452, 32.432 48.637 C 35.514 38.002, 35.499 38.293, 33 37.500 C 30.624 36.746, 27 37.726, 27 39.122 C 27 41.142, 18.764 52.152, 16.671 52.930 C 6.248 56.805, 6.519 36.333, 17.110 19.829 C 20.589 14.406, 27.301 8, 29.503 8 C 31.570 8, 35.009 11.626, 34.956 13.750 C 34.879 16.832, 32.315 22.899, 29.566 26.502 C 27.183 29.627, 27.097 30, 28.762 30 C 32.182 30, 37.766 22.470, 39.404 15.649 C 42.030 4.714, 29.189 -1.041, 18.430 6.250 M 125.161 14.750 C 124.609 17.363, 123.846 21.188, 123.467 23.250 C 122.799 26.885, 122.648 27, 118.539 27 C 112.148 27, 106.891 31.280, 102.451 40.098 C 100.482 44.007, 98.675 47.008, 98.434 46.767 C 98.193 46.527, 98.667 44.118, 99.487 41.415 C 102.376 31.893, 100.900 28.268, 94.553 29.298 C 92.200 29.680, 90.740 29.391, 89.899 28.379 C 88.048 26.148, 84.603 27.088, 83.964 30 C 83.134 33.786, 79.251 41.876, 76.835 44.853 C 75.465 46.542, 74.926 46.835, 75.346 45.663 C 76.748 41.749, 77.189 36.235, 76.151 35.594 C 75.566 35.232, 75.342 34.272, 75.654 33.460 C 75.965 32.649, 75.485 30.863, 74.587 29.492 C 73.357 27.616, 72.083 27, 69.427 27 C 62.578 27, 57.661 31.101, 53.695 40.122 C 50.723 46.882, 48.410 48.923, 50.530 42.915 C 52.996 35.925, 52.037 32, 47.863 32 C 46.456 32, 46.228 31.372, 46.661 28.704 C 47.359 24.403, 45.066 22.193, 41.564 23.789 C 36.771 25.973, 37.411 34.312, 42.469 35.581 C 44.563 36.107, 44.756 36.511, 43.940 38.658 C 42.214 43.197, 42.810 48.473, 45.314 50.826 C 48.164 53.503, 49.201 53.541, 51.455 51.049 C 53.079 49.255, 53.409 49.222, 55.570 50.638 C 58.370 52.472, 62.744 51.776, 66.381 48.915 C 68.837 46.983, 68.860 46.983, 69.494 48.982 C 70.358 51.704, 74.434 52.601, 77.326 50.706 C 79.442 49.319, 79.739 49.352, 80.828 51.095 C 81.482 52.143, 82.874 53, 83.921 53 C 85.386 53, 85.983 52.021, 86.512 48.750 C 87.400 43.255, 90.178 36.903, 92.525 35 C 94.225 33.621, 94.313 33.662, 93.617 35.500 C 93.201 36.600, 92.361 39.648, 91.753 42.274 C 90.765 46.532, 90.865 47.343, 92.679 49.774 C 95.466 53.511, 97.684 53.677, 101.099 50.405 C 102.694 48.877, 104 48.144, 104 48.778 C 104 49.411, 104.922 50.423, 106.049 51.026 C 108.598 52.390, 113.941 50.828, 116.538 47.958 C 118.294 46.018, 118.341 46.031, 120.144 48.996 C 122.555 52.960, 126.629 53.063, 130.205 49.250 C 133.085 46.180, 138 36.900, 138 34.533 C 138 31.157, 134.913 33.307, 132.531 38.344 C 129.771 44.177, 126 48.484, 126 45.802 C 126 44.973, 127.589 37.476, 129.532 29.141 C 133.351 12.756, 133.209 10, 128.548 10 C 126.514 10, 126.019 10.694, 125.161 14.750 M 164.640 22.920 C 160.532 33.183, 157 45.947, 157 50.528 C 157 52.934, 157.602 53.953, 159.547 54.839 C 163.621 56.696, 165 56.294, 165.003 53.250 C 165.006 49.825, 169.002 34.800, 172.379 25.521 L 174.918 18.542 172.785 16.271 C 171.611 15.022, 170.102 14, 169.431 14 C 168.759 14, 166.603 18.014, 164.640 22.920 M 242.016 24.483 C 240.220 26.394, 239.699 28.055, 239.754 31.689 C 239.801 34.802, 239.010 38.020, 237.432 41.135 C 234.343 47.231, 232.638 48.276, 234.530 42.915 C 236.996 35.925, 236.037 32, 231.863 32 C 230.456 32, 230.228 31.372, 230.661 28.704 C 231.030 26.430, 230.715 25.008, 229.646 24.121 C 226.104 21.181, 221.137 26.427, 222.463 31.708 C 223.026 33.953, 219.962 41.174, 216.610 45.500 C 215.359 47.114, 215.450 46.067, 217.080 40.082 C 219.777 30.180, 219.436 27.591, 215.386 27.197 C 212.442 26.910, 212.237 27.119, 211.611 31.029 C 210.894 35.517, 206.765 44.409, 204.849 45.593 C 204.008 46.113, 203.879 45.769, 204.409 44.414 C 206.357 39.439, 208.296 30.213, 207.713 28.694 C 207.300 27.618, 205.958 27, 204.031 27 C 201.561 27, 200.996 27.416, 200.978 29.250 C 200.948 32.283, 197.745 39.148, 195.495 41 C 193.813 42.384, 193.752 42.346, 194.695 40.500 C 196.487 36.997, 196.989 32.069, 195.816 29.495 C 194.940 27.573, 193.925 27, 191.399 27 C 189.594 27, 187.829 27.468, 187.475 28.041 C 187.121 28.613, 185.998 28.817, 184.978 28.493 C 181.279 27.319, 176.044 32.874, 173.942 40.203 C 172.800 44.186, 174.331 49.572, 177.014 51.008 C 180.405 52.822, 185.668 52.150, 188.818 49.500 C 190.452 48.125, 192.421 47, 193.194 47 C 193.967 47, 195.125 46.475, 195.767 45.833 C 196.657 44.943, 197.097 45.122, 197.619 46.583 C 199.530 51.931, 204.664 53.746, 207.288 49.999 L 208.689 47.999 210.500 49.999 C 214.540 54.464, 218.592 51.783, 223.507 41.393 C 224.910 38.427, 226.709 36, 227.505 36 C 228.643 36, 228.743 36.545, 227.975 38.565 C 226.217 43.191, 226.792 48.456, 229.314 50.826 C 230.587 52.022, 232.084 53, 232.640 53 C 234.132 53, 237.514 49.097, 240.321 44.134 C 242.649 40.020, 242.834 39.902, 243.529 42.090 C 244.015 43.622, 243.838 44.554, 243.008 44.831 C 242.316 45.061, 240.876 46.124, 239.808 47.192 C 237.118 49.882, 239.039 52, 244.171 52 C 247.690 52, 248.799 51.295, 254.883 45.187 C 261.995 38.046, 264.002 34.322, 261.299 33.284 C 260.390 32.936, 259.346 33.417, 258.767 34.452 C 258.225 35.421, 256.566 37.573, 255.081 39.235 L 252.382 42.256 249.741 36.920 C 248.271 33.950, 247.457 31.122, 247.906 30.542 C 249.409 28.597, 249.921 24.610, 248.836 23.302 C 247.174 21.299, 244.586 21.747, 242.016 24.483 M 67.116 32.632 C 64.881 34.197, 60.030 43.152, 60.010 45.750 C 59.992 47.974, 62.532 47.080, 65.692 43.750 C 69.592 39.640, 72.163 34.589, 71.386 32.563 C 70.630 30.594, 70.010 30.604, 67.116 32.632 M 116.607 33.095 C 111.732 36.929, 107.559 48.151, 111.582 46.607 C 112.452 46.273, 113.331 46, 113.536 46 C 114.990 46, 121 36.222, 121 33.856 C 121 30.451, 120.154 30.305, 116.607 33.095 M 190.352 31.816 C 187.202 33.863, 185.954 40.887, 188.382 42.902 C 189.494 43.825, 190.079 43.260, 191.382 40.004 C 193.797 33.967, 193.287 29.909, 190.352 31.816 M 180 43.801 C 180 46.360, 182.486 48.399, 184.301 47.329 C 185.409 46.675, 185.104 46.009, 182.853 44.174 C 180.150 41.970, 180 41.950, 180 43.801" stroke="none" fill="#000000" fill-rule="evenodd"/>
</svg>