<?xml version="1.0" encoding="UTF-8"?>
<svg id="Layer_1" xmlns="http://www.w3.org/2000/svg" version="1.1" viewBox="0 0 515 77">
  <!-- Generator: Adobe Illustrator 30.1.0, SVG Export Plug-In . SVG Version: 2.1.1 Build 136)  -->
  <defs>
    <style>
      .st0 {
        stroke: #000;
        stroke-miterlimit: 22.93;
        stroke-width: .22px;
      }
    </style>
  </defs>
  <path class="st0" d="M11.5,66.8V8.9h18.6v19.6h17.3V8.9h18.6v57.9h-18.6v-22.4h-17.3v22.4H11.5ZM86.1,40.6h15.1c-.2-2.6-.9-4.6-2.2-5.9s-3.1-2-5.5-2c-2.2,0-4,.7-5.3,2.1-1.3,1.4-2,3.3-2.1,5.8h0ZM100.3,54.1h16.3c-1.2,4.7-3.8,8.2-7.8,10.6-4,2.4-9.3,3.6-15.8,3.6-7.3,0-13.2-2-17.5-6.1s-6.5-9.5-6.5-16.4,2.2-12.8,6.6-17c4.4-4.1,10.4-6.2,18-6.2s13.6,2.3,17.9,6.8,6.5,10.8,6.5,18.8v1h-31.9c.1,2.7.8,4.8,2.2,6.3,1.4,1.5,3.3,2.2,5.7,2.2,1.6,0,3-.3,4.1-.9,1.1-.6,1.8-1.5,2.2-2.7h0ZM120.6,66.8V8.9h17.1v57.9h-17.1ZM143.1,66.8V8.9h17.1v57.9h-17.1ZM180,40.6h15.1c-.2-2.6-.9-4.6-2.2-5.9-1.3-1.3-3.1-2-5.5-2-2.2,0-4,.7-5.3,2.1-1.3,1.4-2,3.3-2.1,5.8h0ZM194.2,54.1h16.3c-1.2,4.7-3.8,8.2-7.8,10.6-4,2.4-9.3,3.6-15.8,3.6-7.3,0-13.2-2-17.5-6.1s-6.5-9.5-6.5-16.4,2.2-12.8,6.6-17c4.4-4.1,10.4-6.2,18-6.2s13.6,2.3,17.9,6.8c4.3,4.5,6.5,10.8,6.5,18.8v1h-31.9c.1,2.7.8,4.8,2.2,6.3s3.3,2.2,5.7,2.2c1.6,0,3-.3,4.1-.9,1.1-.6,1.8-1.5,2.2-2.7h0ZM214.2,66.8V24.1h15.4v6.2c2-2.5,4.2-4.3,6.7-5.6,2.5-1.2,5.2-1.8,8.3-1.8,2.6,0,4.9.4,7,1.3,2,.9,3.8,2.1,5.2,3.8,1.3,1.5,2.2,3.4,2.7,5.6s.8,5.8.8,10.9v22.2h-17v-22c0-3.2-.4-5.5-1.3-6.7-.9-1.2-2.3-1.8-4.5-1.8s-3.7.7-4.8,2.1c-1,1.4-1.6,3.6-1.6,6.5v22h-16.9ZM293.3,47.7c-1.6.6-3.8,1.3-6.5,2-4.2,1.1-6.4,2.6-6.4,4.5,0,1.2.4,2.1,1.3,2.8.8.7,2,1,3.6,1,2.8,0,4.9-.7,6.2-2,1.3-1.3,1.9-3.4,1.9-6.2v-1.4c-.1-.2-.1-.4-.1-.7h0ZM294.8,66.8l-1.1-4.1c-2.2,1.9-4.5,3.3-7,4.2-2.5.9-5.3,1.4-8.5,1.4-4.8,0-8.5-1.2-11.2-3.6-2.6-2.4-3.9-5.7-3.9-10s1.3-7.3,3.9-9.3,7.5-3.5,14.7-4.4c.9-.1,2.1-.3,3.7-.4,5.4-.6,8.1-2,8.1-4.2,0-1.2-.5-2.1-1.5-2.7-1-.6-2.5-.8-4.7-.8-1.8,0-3.1.3-4,1s-1.5,1.8-1.6,3.2h-16.6c.1-4.8,2-8.4,5.9-10.9,3.8-2.5,9.5-3.7,17-3.7,3.5,0,6.7.3,9.7,1s5.3,1.5,6.9,2.6c2,1.4,3.4,2.9,4.2,4.6.8,1.7,1.2,4.2,1.2,7.4v23.8c0,.8.2,1.5.5,2.1s.8,1.1,1.4,1.5v1.2h-17.1v.1ZM324.6,55.4c0,3.2.3,5.1,1.1,5.8.7.7,2,1.1,4,1.1.6,0,1.3,0,2-.1s1.6-.3,2.5-.5v4.8c-1.3.3-2.5.5-3.7.7-1.1.2-2.2.2-3.2.2-3,0-5.1-.8-6.4-2.5-1.3-1.7-1.9-4.6-1.9-8.8v-27.3h-7.2v-4.6h7.2v-12.5h5.6v12.5h9.7v4.6h-9.7v26.6h0ZM341.7,66.8h-5.6V24.2h5.6v7.1c1.2-2.7,3-4.8,5.2-6.3,2.3-1.5,4.8-2.3,7.6-2.3.9,0,1.8.1,2.8.3.9.2,1.9.5,2.8.9v5.4c-.9-.3-1.8-.5-2.6-.6-.8-.1-1.6-.2-2.4-.2-3.3,0-6.1.9-8.3,2.7-2.2,1.8-3.9,4.5-5.1,8.1v27.5h0ZM404.8,61.4v4.8c-.9.3-1.7.5-2.5.6s-1.5.2-2.2.2c-1.9,0-3.3-.5-4.1-1.5-.9-1-1.4-2.8-1.6-5.2-2.3,2.6-4.9,4.6-7.8,5.8s-6.4,1.8-10.4,1.8c-5.2,0-9.1-1.1-11.9-3.3-2.8-2.2-4.2-5.4-4.2-9.5,0-1.9.4-3.6,1.1-5.1.8-1.5,1.9-2.8,3.4-4,1.2-.9,2.8-1.6,4.8-2.2,2-.6,5.5-1.2,10.3-1.9,1.1-.1,2.5-.3,4.4-.5,6.9-.8,10.4-2.9,10.4-6,0-2.3-1-4.1-3-5.3-2-1.2-4.9-1.8-8.8-1.8-4.9,0-8.6.8-11.1,2.5-2.5,1.6-3.9,4.1-4.1,7.4h-5.5c.3-5,2.1-8.7,5.5-11.2,3.3-2.5,8.2-3.7,14.5-3.7,4.1,0,7.3.4,9.8,1.2,2.5.8,4.5,2.1,5.9,3.9.9,1.1,1.5,2.4,1.9,3.8s.6,3.6.6,6.6v18.7c0,1.9.2,3.1.5,3.6s.9.7,1.8.7c.4,0,.8,0,1.2-.1.3-.1.7-.2,1.1-.3h0ZM394.4,43.7c-1,.6-2.6,1.1-4.6,1.6-2.1.5-5.4,1.1-10.1,1.8-6.2,1-10,2-11.7,3.1-1.6,1.1-2.4,2.8-2.4,5s1,4.1,3,5.5,4.7,2.1,8,2.1c5.3,0,9.5-1.2,12.8-3.7s4.9-5.7,4.9-9.6v-5.8h.1ZM421.3,66.8l-19.4-42.6h6.4l16,36.9,16.1-36.9h6.2l-19.6,42.6h-5.7ZM451.1,42h32.9c-.3-4.2-2-7.6-4.9-10.2-3-2.6-6.8-3.8-11.4-3.8s-8.5,1.3-11.5,3.8-4.7,5.9-5.1,10.2h0ZM488.7,53.2c-1.1,4.6-3.6,8.3-7.4,11s-8.3,4.1-13.7,4.1c-6.8,0-12.3-2.1-16.5-6.3s-6.3-9.7-6.3-16.6,2.1-12.3,6.3-16.5c4.2-4.2,9.7-6.3,16.5-6.3s12.3,2.1,16.5,6.2c4.1,4.1,6.2,9.7,6.2,16.5v1.3h-39.4c.3,5.2,1.9,9.1,4.8,12,2.9,2.8,6.9,4.2,11.9,4.2,3.6,0,6.8-.8,9.3-2.5,2.6-1.7,4.4-4.1,5.4-7.1h6.4ZM495.1,66.8V8.7h5.5v58.1h-5.5Z"/>
</svg>