<svg xmlns="http://www.w3.org/2000/svg" width="350" height="45" viewBox="0 0 350 45" version="1.1">
	<path d="M 129.937 2.576 C 128.085 4.808, 130.239 5.965, 136.281 5.985 C 141.266 6.001, 143.808 3.758, 140.896 1.914 C 138.535 0.420, 131.367 0.853, 129.937 2.576 M 338.104 1.914 C 335.192 3.758, 337.734 6.001, 342.719 5.985 C 348.761 5.965, 350.915 4.808, 349.063 2.576 C 347.633 0.853, 340.465 0.420, 338.104 1.914 M 73.693 2.700 C 72.667 2.966, 72.022 3.888, 72.202 4.834 C 72.427 6.025, 73.766 6.590, 76.894 6.814 C 82.175 7.193, 84.434 5.555, 81.559 3.433 C 79.640 2.017, 77.206 1.790, 73.693 2.700 M 280.695 3.111 C 279.268 3.941, 279.137 4.460, 280.067 5.581 C 281.419 7.209, 287.773 7.456, 290 5.966 C 291.298 5.097, 291.239 4.763, 289.559 3.481 C 287.312 1.766, 283.294 1.599, 280.695 3.111 M 84.006 15.651 C 80.703 22.608, 78 28.458, 78 28.651 C 78 28.843, 80.835 29, 84.301 29 L 90.601 29 92.813 24.448 C 94.071 21.859, 95.479 20.178, 96.080 20.550 C 96.661 20.909, 96.881 21.868, 96.569 22.681 C 96.257 23.494, 96.275 25.248, 96.609 26.579 C 97.178 28.847, 97.652 29, 104.108 29 C 107.899 29, 110.984 28.663, 110.965 28.250 C 110.945 27.837, 110.286 26.375, 109.500 25 C 108.714 23.625, 108.055 21.240, 108.035 19.699 C 108.007 17.433, 108.663 16.621, 111.468 15.449 C 113.375 14.652, 116.248 14, 117.851 14 C 119.897 14, 120.918 13.420, 121.275 12.058 C 121.554 10.990, 121.531 9.865, 121.225 9.558 C 119.091 7.424, 102.820 10.881, 99.262 14.224 C 96.416 16.898, 96.435 16.527, 99.500 9.596 C 100.875 6.487, 102 3.731, 102 3.471 C 102 3.212, 99.303 3, 96.006 3 L 90.012 3 84.006 15.651 M 292.008 14.985 C 288.703 21.576, 286 27.426, 286 27.985 C 286 28.559, 288.610 29, 292.013 29 L 298.026 29 300.212 24.500 C 301.415 22.025, 302.759 20, 303.199 20 C 303.640 20, 304 22.025, 304 24.500 L 304 29 311 29 C 314.850 29, 318 28.678, 318 28.283 C 318 27.889, 317.261 25.633, 316.358 23.269 C 314.820 19.239, 314.826 18.850, 316.459 17.045 C 317.464 15.935, 320.379 14.775, 323.350 14.304 C 327.740 13.608, 328.550 13.134, 328.839 11.092 C 329.177 8.708, 329.144 8.699, 322.151 9.349 C 314.018 10.105, 310.395 11.294, 307.250 14.241 C 304.634 16.692, 304.311 15.234, 306.522 10.957 C 307.359 9.338, 308.473 6.886, 308.997 5.507 C 309.949 3.005, 309.939 3, 303.983 3 L 298.015 3 292.008 14.985 M 5.500 5.012 C 6.600 5.494, 10.200 6.689, 13.500 7.667 C 19.285 9.383, 19.373 9.458, 15.961 9.771 C 12.699 10.070, 12.038 10.739, 7.537 18.298 C 4.851 22.809, 2.027 27.477, 1.263 28.672 C -0.118 30.829, -0.073 30.846, 8.023 31.172 L 16.174 31.500 20.671 23.243 C 25.177 14.973, 25.609 14.688, 29.107 17.678 C 30.482 18.853, 31.395 18.760, 35.422 17.033 L 40.130 15.015 39.435 17.258 C 39.053 18.491, 37.674 21.623, 36.370 24.217 C 35.067 26.811, 34 29.173, 34 29.467 C 34 29.760, 37.308 30, 41.351 30 L 48.702 30 54.734 17.250 L 60.767 4.500 53.521 4.210 C 48.064 3.992, 44.997 4.425, 41.099 5.961 L 35.923 8.001 32.001 6.001 C 28.681 4.307, 26.195 4.010, 15.790 4.068 C 7.842 4.111, 4.207 4.445, 5.500 5.012 M 213 4.880 C 213.825 5.330, 216.750 6.283, 219.500 6.997 C 225.712 8.609, 227.457 10, 223.269 10 C 220.370 10, 219.685 10.750, 214.024 20.121 C 210.661 25.688, 208.042 30.364, 208.205 30.512 C 208.367 30.661, 212.033 30.955, 216.352 31.166 L 224.204 31.549 228.218 23.525 C 230.426 19.111, 232.407 15.311, 232.620 15.079 C 232.833 14.848, 234.139 15.721, 235.521 17.020 L 238.035 19.382 242.638 17.145 C 245.170 15.915, 247.441 15.108, 247.685 15.352 C 247.929 15.596, 246.519 18.991, 244.552 22.898 L 240.975 30 248.480 30 L 255.985 30 261.992 18.015 C 265.297 11.424, 268 5.574, 268 5.015 C 268 3.106, 253.567 3.828, 248.523 5.990 C 243.889 7.977, 243.874 7.977, 239.980 5.990 C 236.700 4.316, 234.125 4.005, 223.790 4.030 C 216.834 4.048, 212.151 4.416, 213 4.880 M 126.237 10.250 C 125.075 11.692, 117 27.670, 117 28.528 C 117 28.842, 119.588 28.965, 122.750 28.800 L 128.500 28.500 132.677 20 C 134.975 15.325, 136.888 10.938, 136.927 10.250 C 136.976 9.411, 135.397 9, 132.122 9 C 129.424 9, 126.795 9.559, 126.237 10.250 M 329.510 17.980 C 327.030 22.919, 325 27.419, 325 27.980 C 325 28.551, 327.447 29, 330.558 29 L 336.116 29 340.558 19.429 C 343.001 14.166, 345 9.666, 345 9.429 C 345 9.193, 342.530 9, 339.510 9 L 334.020 9 329.510 17.980 M 63.510 18.980 C 61.030 23.919, 59 28.194, 59 28.480 C 59 28.766, 61.636 29, 64.858 29 L 70.715 29 74.858 19.957 C 77.136 14.984, 79 10.709, 79 10.457 C 79 10.206, 76.530 10, 73.510 10 L 68.020 10 63.510 18.980 M 275.237 11.250 C 274.683 11.938, 272.373 16.212, 270.104 20.750 L 265.978 29 272.253 29 L 278.528 29 281.355 22.750 C 282.910 19.313, 284.823 15.037, 285.605 13.250 L 287.027 10 281.636 10 C 278.527 10, 275.818 10.529, 275.237 11.250 M 169.280 12.020 C 168.059 12.511, 166.787 13.999, 166.454 15.326 C 165.949 17.338, 165.060 17.833, 161.101 18.302 C 154.711 19.058, 149.071 21.869, 148.375 24.643 C 147.602 27.723, 148.460 28.756, 152.786 29.957 C 157.952 31.392, 162.599 31.255, 169.467 29.466 C 174.758 28.088, 175.811 28.088, 179.856 29.466 C 185.711 31.462, 189.580 31.374, 194.500 29.137 C 199.910 26.676, 201.526 24.681, 199.483 22.986 C 198.290 21.996, 197.370 21.966, 195.423 22.853 C 192.665 24.110, 187.718 24.384, 186.672 23.339 C 186.308 22.975, 187.696 21.556, 189.755 20.184 C 191.815 18.813, 193.677 17.547, 193.893 17.370 C 194.108 17.193, 193.745 16.397, 193.084 15.602 C 192.057 14.364, 191.165 14.602, 186.911 17.246 C 183.420 19.416, 181.623 20.023, 180.882 19.282 C 180.140 18.540, 180.150 18.026, 180.913 17.554 C 182.669 16.468, 182.161 13.156, 180.066 12.035 C 177.745 10.793, 172.348 10.785, 169.280 12.020 M 176.333 15.667 C 176.700 16.033, 177.300 16.033, 177.667 15.667 C 178.033 15.300, 177.733 15, 177 15 C 176.267 15, 175.967 15.300, 176.333 15.667 M 164.250 22.662 C 161.613 23.727, 163.177 25, 167.122 25 C 170.673 25, 171.072 24.792, 170 23.500 C 168.762 22.008, 166.638 21.699, 164.250 22.662 M 280 35.500 C 280 36.325, 280.675 37, 281.500 37 C 282.548 37, 283 38.056, 283 40.500 C 283 42.944, 283.452 44, 284.500 44 C 285.548 44, 286 42.944, 286 40.500 C 286 38.056, 286.452 37, 287.500 37 C 288.325 37, 289 36.325, 289 35.500 C 289 34.389, 287.833 34, 284.500 34 C 281.167 34, 280 34.389, 280 35.500 M 290 39 C 290 42.647, 290.383 44, 291.417 44 C 292.196 44, 293.040 43.438, 293.292 42.750 C 293.658 41.750, 294.015 41.750, 295.075 42.750 C 296.650 44.236, 303 44.436, 303 43 C 303 42.450, 303.900 42, 305 42 C 306.100 42, 307 42.450, 307 43 C 307 43.550, 307.875 44, 308.945 44 C 310.853 44, 310.850 43.907, 308.811 39 C 307.668 36.250, 306.112 34, 305.354 34 C 304.595 34, 302.990 36.025, 301.788 38.500 C 299.282 43.657, 297.525 44.439, 298.509 39.959 C 299.380 35.992, 297.665 34, 293.378 34 L 290 34 290 39 M 310.559 36.250 C 311.922 40.667, 314.075 44, 315.567 44 C 316.400 44, 317.932 42.087, 318.970 39.750 L 320.859 35.500 320.929 39.750 L 321 44 325.500 44 C 327.975 44, 330 43.550, 330 43 C 330 42.450, 328.875 42, 327.500 42 C 326.125 42, 325 41.550, 325 41 C 325 40.450, 325.900 40, 327 40 C 329.767 40, 329.531 38.024, 326.750 37.900 L 324.500 37.801 326.809 37.150 C 331.084 35.946, 329.561 34.502, 323.837 34.332 C 318.382 34.170, 318.128 34.278, 316.887 37.273 L 315.599 40.383 314.297 37.191 C 312.772 33.456, 309.438 32.616, 310.559 36.250 M 331 39 L 331 44 335 44 C 337.200 44, 339 43.550, 339 43 C 339 42.450, 337.875 42, 336.500 42 C 334.250 42, 334 41.600, 334 38 C 334 35.111, 333.583 34, 332.500 34 C 331.367 34, 331 35.222, 331 39 M 293 38 C 293 38.550, 293.675 39, 294.500 39 C 295.325 39, 296 38.550, 296 38 C 296 37.450, 295.325 37, 294.500 37 C 293.675 37, 293 37.450, 293 38 M 304.333 39.667 C 304.700 40.033, 305.300 40.033, 305.667 39.667 C 306.033 39.300, 305.733 39, 305 39 C 304.267 39, 303.967 39.300, 304.333 39.667" stroke="none" fill="#000000" fill-rule="evenodd"/>
</svg>