<?xml version="1.0" encoding="UTF-8"?>
<svg id="Layer_1" xmlns="http://www.w3.org/2000/svg" version="1.1" viewBox="0 0 726.75 393">
  <!-- Generator: Adobe Illustrator 30.1.0, SVG Export Plug-In . SVG Version: 2.1.1 Build 136)  -->
  <path d="M130.07,146c-.02-.06-12.05-5.86-18.65-6.78s-15.67,4.95-10.04,13.3c1.77,2.63,16.56,8.35,27.13,14.61,11.14,6.6,15.38,21.82,13.56,28.2-1,3.51-2.8,9.01-6.13,13.01-4.58,5.51-11.28,9.2-15.79,10.23-5.75,1.31-17.45,2.54-27.81-.04-13.13-3.27-23.57-11.11-23.57-11.11l10.93-19.22s12.68,10.61,27.03,11.13c8.15.3,16.56-8.74,5.87-17.35-3.51-2.83-13.9-5.73-17.74-8.09-4.35-2.67-11.55-8.51-14.35-12.78-2.48-3.78-4.04-12.91-3-18.26,1.13-5.8,4.83-12.91,11.09-16.82,25.4-15.87,50.08,2.87,50.08,2.87l-8.61,17.09Z"/>
  <path d="M222.14,121.14v66.34c0,17.53-14.21,31.73-31.73,31.73h-12.52c-17.53,0-31.74-14.2-31.74-31.73v-66.34s22.09,0,22.09,0v61.65c0,8.79,7.12,15.91,15.91,15.91s15.92-7.12,15.92-15.91v-61.65s22.08,0,22.08,0Z"/>
  <polygon points="333.22 218.25 310.27 218.21 306.5 159.37 289.54 205.33 285.58 216.07 278.86 216.13 272.13 216.07 268.17 205.33 251.06 158.98 247.27 218.21 224.32 218.25 233.84 120.45 253.53 120.39 253.53 120.5 258.22 120.48 278.86 176.37 299.48 120.48 304 120.5 304 120.39 323.71 120.45 333.22 218.25"/>
  <path d="M386.53,121.5l-.41-1.02-5.5.05-15.17.13-.35.84-38.94,96.71,23.58.11,7.92-20.86,36.3.08,7.96,20.97,23.77.24-39.17-97.27ZM364.8,178.73l11.01-29.01,11.03,29.04-22.04-.04Z"/>
  <path d="M345.72,250.81l-.1-.23h-1.27s-3.5.04-3.5.04l-.08.2-9,22.34,5.45.03,1.83-4.82,8.39.02,1.84,4.84,5.49.06-9.05-22.47ZM340.7,264.03l2.54-6.7,2.55,6.71h-5.09Z"/>
  <path d="M618.88,121.36l-.41-1.02-5.49.05-15.17.13-.35.85-39.01,97.02,23.64.04,7.93-20.93h36.3s7.95,20.97,7.95,20.97l23.72.17-39.1-97.29ZM597.15,178.7l11.01-29.07,11.03,29.07h-22.04Z"/>
  <polygon points="486.44 121.19 486.44 140.24 463.47 140.24 463.47 218.25 441.43 218.25 441.43 140.24 418.3 140.24 418.3 121.19 486.44 121.19"/>
  <polygon points="274.5 250.53 274.5 255.01 268.38 255.01 268.38 273.33 262.51 273.33 262.51 255.01 256.34 255.01 256.34 250.53 274.5 250.53"/>
  <path d="M535.64,177.15c11.59-2.25,20.32-12.45,20.32-24.69v-6.11c0-13.89-11.25-25.16-25.14-25.16h-41.56s0,97.06,0,97.06h22.69s0-37.73,0-37.73l29.98,37.8h27.96s-34.25-41.17-34.25-41.17ZM511.95,139.3h9.01c6.71,0,12.13,5.44,12.13,12.13,0,3.35-1.36,6.39-3.55,8.59-2.2,2.19-5.24,3.55-8.59,3.55h-9.01s0-24.26,0-24.26Z"/>
  <path d="M307.46,263.67c2.9-.53,5.09-2.92,5.09-5.8v-1.43c0-3.26-2.82-5.91-6.3-5.91h-10.42s0,22.79,0,22.79h5.69v-8.86s7.52,8.87,7.52,8.87h7.01s-8.59-9.67-8.59-9.67ZM301.52,254.78h2.26c1.68,0,3.04,1.28,3.04,2.85,0,.79-.34,1.5-.89,2.02-.55.51-1.31.83-2.15.83h-2.26s0-5.7,0-5.7Z"/>
  <polygon points="394.45 250.23 386.48 273.31 379.44 273.31 371.36 250.23 377.48 250.23 382.48 265.3 383.41 265.3 388.73 250.23 394.45 250.23"/>
  <polygon points="418.41 255.26 418.41 259.25 428.42 259.25 428.42 264.33 418.41 264.33 418.41 268.3 429.46 268.3 429.46 273.3 413.42 273.3 413.42 250.25 429.46 250.25 429.46 255.26 418.41 255.26"/>
  <polygon points="465.42 268.3 465.42 273.3 448.43 273.3 448.43 250.25 454.36 250.25 454.36 268.3 465.42 268.3"/>
</svg>