<svg xmlns="http://www.w3.org/2000/svg" width="634" height="190" viewBox="0 0 634 190" version="1.1">
	<path d="M 40.641 11.003 C 39.577 16.107, 39.011 23.805, 38.913 34.482 C 38.796 47.330, 38.545 47.269, 31.516 32.685 C 26.369 22.008, 26.185 22.318, 25.365 43 C 24.682 60.239, 26.096 68.689, 31.501 79.671 C 36.129 89.072, 45.460 97.829, 57.359 103.935 C 62.111 106.374, 66 108.879, 66 109.501 C 66 110.124, 65.556 113.078, 65.013 116.066 C 64.470 119.055, 63.153 129.304, 62.086 138.843 C 61.020 148.382, 59.934 156.399, 59.673 156.660 C 59.413 156.921, 56.117 157.777, 52.350 158.564 C 48.582 159.350, 44.375 160.827, 43 161.847 C 38.142 165.449, 39.470 171.413, 46.589 177.975 C 51.662 182.651, 54.981 183.110, 58.471 179.620 C 60.875 177.216, 64 168.578, 64 164.338 C 64 162.643, 64.723 161.879, 66.750 161.432 C 82.778 157.898, 94.030 152.100, 103.675 142.405 C 112.874 133.158, 117.326 124.125, 123.590 102 C 129.174 82.275, 131.549 76.612, 136.565 71.060 C 143.215 63.699, 145.099 63.262, 160 65.625 C 163.260 66.141, 163.063 65.904, 157.124 62.167 C 152.715 59.393, 149.996 56.820, 148.311 53.828 C 145.102 48.129, 136.513 39.381, 131.500 36.708 C 125.816 33.676, 116.177 33.783, 109.661 36.951 C 104.779 39.325, 95.011 48.077, 91.347 53.361 L 89.363 56.222 79.931 52.281 C 59.547 43.764, 51.850 36.153, 44.565 17.311 C 41.802 10.163, 41.064 8.977, 40.641 11.003 M 44.275 42.500 C 44.661 52.851, 45.289 57.130, 47.358 63.500 C 51.932 77.587, 57.717 84.700, 78.065 101.256 C 92.106 112.679, 98.369 121.875, 99.687 133.001 C 100.012 135.750, 100.590 138, 100.970 138 C 102.223 138, 108.015 129.193, 111.104 122.591 C 113.849 116.725, 120.001 97.380, 119.999 94.621 C 119.998 92.434, 114.207 81.437, 110.852 77.250 C 105.555 70.639, 98.106 65.653, 85.806 60.482 C 62.753 50.793, 54.267 45.054, 46.965 34.214 L 43.790 29.500 44.275 42.500 M 115.969 40.397 C 111.299 41.616, 109.426 42.690, 104.416 47.021 C 100.873 50.085, 95 56.799, 95.001 57.785 C 95.002 58.178, 97.364 59.822, 100.251 61.437 C 106.950 65.185, 115.798 74.021, 119.534 80.694 L 122.443 85.888 125.641 78.982 C 127.401 75.184, 130.044 70.498, 131.515 68.570 C 133.890 65.456, 141.332 59.723, 144.271 58.743 C 145.712 58.263, 140.091 50.165, 135.545 46.174 C 128.694 40.159, 123.149 38.522, 115.969 40.397 M 30 49.245 C 30 52.864, 30.648 59.208, 31.439 63.345 C 35.068 82.310, 44.972 93.030, 68.500 103.457 L 76.500 107.002 72 103.306 C 69.525 101.273, 63.630 95.760, 58.899 91.055 C 51.858 84.050, 49.565 80.960, 46.252 74 C 44.026 69.325, 41.643 63.050, 40.956 60.056 C 39.873 55.336, 36.696 50.242, 30.368 43.083 C 30.166 42.854, 30 45.627, 30 49.245 M 196.207 78.113 L 196.500 86.500 200.446 86.276 C 205.542 85.988, 208.400 83.193, 208.400 78.500 C 208.400 73.887, 205.494 71.010, 200.104 70.287 L 195.915 69.725 196.207 78.113 M 213.441 71.419 C 211.852 72.581, 211.500 74.061, 211.500 79.576 C 211.500 84.072, 211.916 86.455, 212.750 86.740 C 213.597 87.029, 214 86.011, 214 83.583 C 214 80.286, 214.234 80, 216.937 80 C 219.519 80, 219.911 80.392, 220.187 83.250 C 220.729 88.875, 222.487 86.780, 222.801 80.135 C 223.032 75.234, 222.709 73.336, 221.396 71.885 C 219.369 69.645, 216.127 69.455, 213.441 71.419 M 232.013 70.250 C 232.021 70.388, 233.073 73.780, 234.353 77.789 C 237.129 86.490, 238.538 88.308, 240.473 85.688 C 242.122 83.455, 245.525 71.191, 244.719 70.386 C 243.492 69.159, 242.158 71.173, 241.001 75.997 C 240.341 78.749, 239.478 81, 239.083 81 C 238.688 81, 237.585 78.525, 236.632 75.500 C 235.579 72.162, 234.328 70, 233.449 70 C 232.652 70, 232.006 70.112, 232.013 70.250 M 249.528 71.356 C 248.055 72.433, 247.656 74.109, 247.587 79.507 C 247.528 84.113, 247.903 86.442, 248.750 86.735 C 249.598 87.028, 250 86.014, 250 83.583 C 250 80.286, 250.234 80, 252.937 80 C 255.503 80, 255.913 80.400, 256.187 83.173 C 256.359 84.918, 257.063 86.531, 257.750 86.756 C 258.669 87.058, 259 85.333, 259 80.238 C 259 74.796, 258.608 72.955, 257.171 71.655 C 254.953 69.647, 252.022 69.532, 249.528 71.356 M 264.571 70.885 C 263.370 72.828, 262.108 85.508, 263.025 86.425 C 264.429 87.829, 264.882 86.919, 265.763 80.935 L 266.563 75.500 267.906 80.231 C 269.379 85.418, 271.624 88.185, 272.476 85.863 C 272.751 85.113, 273.603 82.700, 274.368 80.500 L 275.761 76.500 276.458 80.500 C 277.444 86.153, 277.786 87, 279.085 87 C 280.197 87, 279.685 76.282, 278.353 71.693 C 277.417 68.465, 274.716 70.369, 272.953 75.500 L 271.235 80.500 270.118 77.685 C 269.503 76.137, 269 74.314, 269 73.635 C 269 71.131, 265.690 69.075, 264.571 70.885 M 291.470 72.405 C 289.567 75.310, 289.777 86.104, 291.750 86.754 C 292.569 87.024, 293 86.103, 293 84.083 C 293 81.634, 293.425 81, 295.066 81 C 298.991 81, 301 79.138, 301 75.500 C 301 69.956, 294.466 67.834, 291.470 72.405 M 304 76.943 C 304 82.985, 304.289 84.089, 306.223 85.443 C 311.733 89.303, 315 86.038, 315 76.671 C 315 68.362, 313.394 67.881, 312.805 76.015 C 312.342 82.414, 311.109 84.640, 308.567 83.664 C 307.366 83.203, 307 81.539, 307 76.531 C 307 71.392, 306.680 70, 305.500 70 C 304.311 70, 304 71.438, 304 76.943 M 318 71.500 C 318 72.333, 318.889 73, 320 73 C 321.812 73, 322 73.667, 322 80.083 C 322 85.304, 322.329 87.058, 323.250 86.754 C 324.041 86.492, 324.608 83.893, 324.796 79.670 C 325.055 73.820, 325.331 73, 327.046 73 C 328.121 73, 329 72.325, 329 71.500 C 329 70.348, 327.722 70, 323.500 70 C 319.278 70, 318 70.348, 318 71.500 M 331.923 72.923 C 330.161 74.685, 329 76.900, 329 78.500 C 329 81.915, 333.993 87, 337.346 87 C 341.428 87, 346 82.438, 346 78.366 C 346 70.625, 337.505 67.341, 331.923 72.923 M 347 70.806 C 347 72.806, 351.392 84.649, 352.619 85.957 C 354.589 88.058, 355.715 86.490, 358.019 78.434 C 360.368 70.219, 360.385 70, 358.664 70 C 357.885 70, 356.573 72.605, 355.517 76.250 L 353.707 82.500 351.766 76.250 C 350.586 72.447, 349.273 70, 348.413 70 C 347.636 70, 347 70.363, 347 70.806 M 363.470 72.405 C 361.567 75.310, 361.777 86.104, 363.750 86.754 C 364.594 87.033, 365 86.003, 365 83.583 C 365 80.286, 365.234 80, 367.937 80 C 370.519 80, 370.911 80.392, 371.187 83.250 C 371.690 88.465, 373.472 86.534, 373.803 80.416 C 374.182 73.398, 372.289 70, 368 70 C 365.984 70, 364.546 70.763, 363.470 72.405 M 378.688 70.646 C 378.309 71.024, 378 74.896, 378 79.250 C 378 85.136, 378.321 87.061, 379.250 86.756 C 379.938 86.530, 380.725 84.132, 381 81.426 L 381.500 76.508 383.404 80.760 C 385.821 86.155, 387.345 87.494, 388.915 85.602 C 390.505 83.687, 389.947 70.807, 388.250 70.246 C 387.350 69.949, 386.982 71.467, 386.937 75.667 L 386.873 81.500 384.187 76.077 C 381.550 70.754, 380.055 69.278, 378.688 70.646 M 396.796 76.750 C 396.527 82.883, 396.294 83.529, 394.250 83.820 C 393.012 83.995, 392 84.832, 392 85.678 C 392 87.670, 396.936 86.628, 398.750 84.254 C 400.596 81.837, 400.427 70, 398.546 70 C 397.446 70, 397.019 71.646, 396.796 76.750 M 407.315 71.007 C 404.564 72.116, 403 74.989, 403 78.934 C 403 82.144, 405.957 86, 408.418 86 C 409.198 86, 410.548 86.273, 411.418 86.607 C 412.422 86.992, 413 86.673, 413 85.732 C 413 84.900, 411.740 83.998, 410.126 83.675 C 408.546 83.359, 406.985 82.403, 406.658 81.550 C 406.191 80.334, 406.809 80, 409.531 80 C 411.948 80, 413 79.545, 413 78.500 C 413 77.446, 411.935 77, 409.417 77 C 404.980 77, 405.220 74.924, 409.816 73.543 C 411.567 73.017, 413 72.004, 413 71.293 C 413 69.828, 410.549 69.704, 407.315 71.007 M 424.470 72.405 C 423.376 74.075, 422.987 76.595, 423.197 80.655 L 423.500 86.500 427.817 86.398 C 433.300 86.268, 435.549 84.222, 434.481 80.335 C 434.052 78.776, 433.799 76.295, 433.919 74.822 C 434.311 69.977, 427.245 68.170, 424.470 72.405 M 438 76.860 C 438 82.987, 438.284 84.086, 440.223 85.443 C 445.753 89.317, 449 86.041, 449 76.588 C 449 67.579, 446.710 67.953, 446 77.078 C 445.565 82.667, 445.240 83.500, 443.500 83.500 C 441.760 83.500, 441.435 82.667, 441 77.078 C 440.699 73.214, 440.002 70.492, 439.250 70.245 C 438.330 69.942, 438 71.686, 438 76.860 M 453.207 78.113 L 453.500 86.500 457.500 86.255 C 462.091 85.973, 466 82.407, 466 78.500 C 466 74.611, 462.078 70.954, 457.206 70.301 L 452.915 69.725 453.207 78.113 M 472.500 71.155 C 469.337 72.885, 468 75.123, 468 78.691 C 468 82.143, 470.859 86, 473.418 86 C 474.198 86, 475.548 86.273, 476.418 86.607 C 477.422 86.992, 478 86.673, 478 85.732 C 478 84.900, 476.740 83.998, 475.126 83.675 C 473.546 83.359, 471.985 82.403, 471.658 81.550 C 471.191 80.334, 471.809 80, 474.531 80 C 476.948 80, 478 79.545, 478 78.500 C 478 77.455, 476.948 77, 474.531 77 C 471.809 77, 471.191 76.666, 471.658 75.450 C 471.985 74.597, 473.546 73.641, 475.126 73.325 C 476.707 73.009, 478 72.131, 478 71.375 C 478 69.738, 475.289 69.629, 472.500 71.155 M 489.953 72.047 C 488.255 73.745, 487.957 75.134, 488.203 80.217 C 488.387 84.001, 488.978 86.499, 489.750 86.754 C 490.594 87.033, 491 86.003, 491 83.583 C 491 80.269, 491.225 80, 494 80 C 496 80, 497 79.500, 497 78.500 C 497 77.492, 495.992 77, 493.927 77 C 491.540 77, 490.927 76.609, 491.185 75.250 C 491.385 74.195, 492.605 73.374, 494.259 73.184 C 497.753 72.780, 497.964 70, 494.500 70 C 493.125 70, 491.079 70.921, 489.953 72.047 M 500.210 78.170 C 500.403 83.599, 500.919 86.478, 501.750 86.753 C 502.685 87.062, 503 85.004, 503 78.583 C 503 71.520, 502.727 70, 501.460 70 C 500.174 70, 499.967 71.353, 500.210 78.170 M 507.451 71.266 C 506.540 73.641, 507.425 86.500, 508.500 86.500 C 509.050 86.500, 509.642 84.025, 509.816 81 L 510.131 75.500 512.816 81 C 516.787 89.137, 518.434 88.379, 518.790 78.250 C 519.033 71.361, 518.827 70, 517.540 70 C 516.352 70, 515.995 71.199, 515.977 75.250 L 515.953 80.500 513.227 75.568 C 510.351 70.367, 508.364 68.887, 507.451 71.266 M 524.636 72.636 C 521.055 76.218, 521.158 80.312, 524.923 84.077 C 526.685 85.839, 528.900 87, 530.500 87 C 534.008 87, 539 82.008, 539 78.500 C 539 76.900, 537.839 74.685, 536.077 72.923 C 532.312 69.158, 528.218 69.055, 524.636 72.636 M 547.667 70.667 C 546.408 71.925, 547.002 73, 548.954 73 C 550.669 73, 550.945 73.820, 551.204 79.670 C 551.392 83.893, 551.959 86.492, 552.750 86.754 C 553.671 87.058, 554 85.304, 554 80.083 C 554 73.667, 554.188 73, 556 73 C 557.111 73, 558 72.333, 558 71.500 C 558 70.374, 556.796 70, 553.167 70 C 550.508 70, 548.033 70.300, 547.667 70.667 M 561 76.894 C 561 83.404, 561.204 84.087, 563.615 85.667 C 565.959 87.203, 566.504 87.228, 568.865 85.906 C 571.285 84.551, 571.524 83.835, 571.796 77.117 C 572.024 71.477, 571.795 69.900, 570.796 70.230 C 569.989 70.495, 569.311 73.080, 569 77.078 C 568.565 82.667, 568.240 83.500, 566.500 83.500 C 564.760 83.500, 564.435 82.667, 564 77.078 C 563.699 73.214, 563.002 70.492, 562.250 70.245 C 561.329 69.942, 561 71.693, 561 76.894 M 587 75.717 C 587 81.857, 585.892 84, 582.717 84 C 581.643 84, 581.022 84.537, 581.272 85.250 C 581.755 86.628, 586.933 86.421, 588.419 84.963 C 589.873 83.537, 589.726 70.775, 588.250 70.265 C 587.343 69.952, 587 71.446, 587 75.717 M 597 71.294 C 589.812 74.930, 591.479 85.287, 599.395 86.175 C 603.408 86.625, 603.726 84.631, 599.829 83.461 C 595.470 82.151, 595.089 80.213, 599.112 79.818 C 603.741 79.363, 604.136 77, 599.583 77 C 597.612 77, 596 76.640, 596 76.200 C 596 74.651, 598.425 73, 600.700 73 C 602.078 73, 603 72.399, 603 71.500 C 603 69.676, 600.377 69.586, 597 71.294 M 199 78.500 C 199 84.329, 199.948 85.221, 203.434 82.672 C 206.929 80.116, 205.048 73, 200.878 73 C 199.268 73, 199 73.786, 199 78.500 M 214.627 74.529 C 213.697 76.953, 213.743 77, 217.073 77 C 219.461 77, 220.072 76.609, 219.813 75.250 C 219.374 72.944, 215.445 72.398, 214.627 74.529 M 250.627 74.529 C 249.697 76.953, 249.743 77, 253.073 77 C 255.461 77, 256.072 76.609, 255.813 75.250 C 255.374 72.944, 251.445 72.398, 250.627 74.529 M 293.667 73.667 C 293.300 74.033, 293 75.158, 293 76.167 C 293 77.456, 293.742 78, 295.500 78 C 297.500 78, 298 77.500, 298 75.500 C 298 73.742, 297.456 73, 296.167 73 C 295.158 73, 294.033 73.300, 293.667 73.667 M 333.333 75.615 C 331.797 77.959, 331.772 78.504, 333.093 80.865 C 334.885 84.069, 338.489 84.773, 341.082 82.425 C 344.838 79.027, 342.516 73, 337.452 73 C 335.961 73, 334.394 73.995, 333.333 75.615 M 365.709 73.624 C 363.992 75.342, 365.153 77, 368.073 77 C 370.461 77, 371.072 76.609, 370.813 75.250 C 370.472 73.460, 366.984 72.349, 365.709 73.624 M 426.667 73.667 C 425.125 75.208, 426.083 77.127, 428.240 76.820 C 431.071 76.416, 431.965 73, 429.240 73 C 428.191 73, 427.033 73.300, 426.667 73.667 M 456 78.500 C 456 84.617, 457.402 85.598, 461 82 C 463.491 79.509, 463.554 76.811, 461.171 74.655 C 457.523 71.354, 456 72.486, 456 78.500 M 526.571 74.571 C 523.229 77.914, 525.940 84, 530.772 84 C 533.048 84, 536 80.574, 536 77.932 C 536 73.845, 529.585 71.558, 526.571 74.571 M 426 81.500 C 426 83.508, 426.498 84, 428.531 84 C 431.411 84, 433.003 81.249, 430.896 79.914 C 428.156 78.180, 426 78.878, 426 81.500 M 196.223 100.119 C 193.312 101.560, 191.077 103.714, 189.223 106.868 L 186.500 111.500 186.186 135.750 L 185.871 160 189.936 160 L 194 160 194.006 139.250 C 194.013 112.622, 195.162 108.154, 202.526 106.121 C 210.161 104.012, 216 108.314, 216 116.047 C 216 122.701, 212.580 125.564, 203.466 126.541 L 196.892 127.245 197.196 130.372 C 197.499 133.487, 197.529 133.502, 204.500 134.065 C 216.309 135.019, 217.112 135.996, 217.797 150.240 L 218.267 160 222.134 160 L 226 160 226 149.968 C 226 136.729, 224.699 133.684, 217.237 129.456 C 217.092 129.374, 218.537 127.650, 220.447 125.625 C 230.894 114.548, 221.982 98.093, 205.500 98.023 C 202.384 98.010, 198.888 98.799, 196.223 100.119 M 251.637 99.465 C 246.708 101.222, 242.253 105.409, 239.896 110.500 C 238.267 114.018, 238.041 117.242, 238.022 137.250 L 238 160 242 160 L 246 160 246 138.468 C 246 114.350, 246.592 111.439, 252.190 108.026 C 254.109 106.855, 257.253 106.006, 259.673 106.004 C 267.347 105.997, 271.981 112.295, 271.994 122.750 L 272 127 260.500 127 L 249 127 249 130.500 L 249 134 260.500 134 L 272 134 272 147 L 272 160 276 160 L 280 160 279.994 138.250 C 279.991 125.405, 279.535 114.864, 278.879 112.503 C 278.228 110.159, 276.059 106.796, 273.632 104.368 C 267.574 98.311, 259.761 96.569, 251.637 99.465 M 571.344 99.013 C 562.063 100.913, 554.040 106.837, 549.534 115.114 C 545.807 121.962, 544.943 132.302, 547.464 139.891 C 554.805 161.994, 583.239 168.641, 599.687 152.101 C 611.094 140.631, 612.090 122.884, 602.040 110.170 C 595.291 101.632, 582.051 96.820, 571.344 99.013 M 493.557 101.223 C 492.237 103.107, 492 107.748, 492 131.723 L 492 160 496 160 L 500 160 500.078 135.750 L 500.156 111.500 511.442 134.598 C 518.427 148.893, 523.628 158.326, 525.087 159.348 C 528.281 161.586, 531.305 161.425, 533.595 158.897 C 535.358 156.951, 535.523 154.673, 535.807 128.397 L 536.114 100 531.575 100 L 527.036 100 526.768 123.422 L 526.500 146.844 516.062 124.847 C 509.737 111.517, 504.660 102.091, 503.177 100.925 C 499.845 98.304, 495.507 98.438, 493.557 101.223 M 138 103.500 L 138 107 145.500 107 L 153 107 153 133.500 L 153 160 157 160 L 161 160 161 133.500 L 161 107 169 107 L 177 107 177 103.500 L 177 100 157.500 100 L 138 100 138 103.500 M 294.951 128.124 C 300.379 145.744, 304.406 157.135, 305.732 158.624 C 308.496 161.727, 313.309 161.784, 316.333 158.750 C 317.936 157.141, 320.917 148.621, 326.788 128.865 C 331.304 113.665, 335 100.927, 335 100.557 C 335 100.188, 333.087 100.023, 330.750 100.193 L 326.500 100.500 319.032 126.232 C 314.925 140.385, 311.295 151.635, 310.966 151.232 C 310.636 150.830, 308.449 144.200, 306.106 136.500 C 303.763 128.800, 300.281 117.438, 298.367 111.250 L 294.889 100 290.588 100 L 286.286 100 294.951 128.124 M 360.365 101.089 C 355.091 102.618, 347.669 108.247, 344.319 113.260 C 336.055 125.625, 338.376 142.999, 349.612 152.889 C 355.347 157.938, 361.456 160, 370.678 160 L 378 160 378 156.500 L 378 153 372.750 152.994 C 365.461 152.987, 360.550 151.422, 356.414 147.790 C 352.569 144.415, 349 138.276, 349 135.040 C 349 133.081, 349.572 133, 363.500 133 L 378 133 378 129.500 L 378 126 363.375 126 L 348.750 126 349.399 122.754 C 351.037 114.567, 360.217 108.004, 371.122 107.223 L 378 106.731 378 103.366 L 378 100 370.750 100.090 C 366.762 100.140, 362.089 100.589, 360.365 101.089 M 388 123.288 C 388 145.467, 388.107 146.786, 390.250 150.980 C 393.988 158.296, 396.434 159.447, 409.070 159.838 L 420 160.177 420 156.588 L 420 153 412.547 153 C 397.313 153, 396.603 151.666, 396.181 122.250 L 395.863 100 391.931 100 L 388 100 388 123.288 M 428.171 123.750 C 428.471 145.383, 428.683 147.856, 430.558 151.500 C 433.759 157.721, 439.161 160, 450.712 160 L 460 160 460 156.500 L 460 153 452.016 153 C 444.609 153, 443.796 152.789, 440.766 150.084 L 437.500 147.168 437.199 123.584 L 436.897 100 432.369 100 L 427.841 100 428.171 123.750 M 469 130 L 469 160 473.500 160 L 478 160 478 130 L 478 100 473.500 100 L 469 100 469 130 M 569.625 107.469 C 557.710 111.716, 551.373 127.289, 556.483 139.766 C 559.628 147.446, 569.305 154, 577.500 154 C 585.501 154, 594.218 148.312, 597.912 140.682 C 600.609 135.110, 600.714 125.163, 598.134 119.500 C 593.252 108.780, 580.749 103.504, 569.625 107.469 M 77 107.500 C 77 107.775, 77.225 108, 77.500 108 C 77.775 108, 78 107.775, 78 107.500 C 78 107.225, 77.775 107, 77.500 107 C 77.225 107, 77 107.225, 77 107.500 M 70.676 113.250 C 70.378 114.487, 69.413 121.575, 68.530 129 C 65.113 157.731, 65.215 156.001, 66.931 155.987 C 70.286 155.958, 84.778 150.215, 90.099 146.805 L 95.699 143.218 94.839 136.928 C 93.948 130.415, 90.906 124.094, 86.845 120.320 C 84.382 118.031, 73.121 111, 71.917 111 C 71.532 111, 70.973 112.013, 70.676 113.250 M 51.235 164.060 C 43.544 165.576, 43.187 167.009, 48.979 173.098 C 53.742 178.105, 55.170 177.536, 57.497 169.699 C 59.739 162.149, 59.952 162.341, 51.235 164.060" stroke="none" fill="#000000" fill-rule="evenodd"/>
</svg>